inDegrees=yes
name=ik_greeting_orientation
DataType=double
version=3
OpenSimVersion=4.5
endheader
time	pelvis_tilt	pelvis_list	pelvis_rotation	pelvis_tx	pelvis_ty	pelvis_tz	hip_flexion_r	hip_adduction_r	hip_rotation_r	knee_angle_r	knee_angle_r_beta	ankle_angle_r	subtalar_angle_r	mtp_angle_r	hip_flexion_l	hip_adduction_l	hip_rotation_l	knee_angle_l	knee_angle_l_beta	ankle_angle_l	subtalar_angle_l	mtp_angle_l	lumbar_extension	lumbar_bending	lumbar_rotation	arm_flex_r	arm_add_r	arm_rot_r	elbow_flex_r	pro_sup_r	wrist_flex_r	wrist_dev_r	arm_flex_l	arm_add_l	arm_rot_l	elbow_flex_l	pro_sup_l	wrist_flex_l	wrist_dev_l
0.7115384615384618	-1.154980502807371	2.979002205816131	90.22409587651482	0	0.93	0	-2.623719105835702	0.2880331944563464	0.8889886763345164	0.7146154243320353	0.01247239204013042	-2.1009912461408	0	0	-2.780781828140648	-0.4689611384332042	0.7837918005348489	0.7941647379866514	0.01386078948110515	-2.100991246128072	0	0	0	0	0	0	0	81.36714399864454	0	0	0	0	0	0	89.36896302966959	0	1.75277008476967e-39	0	0
0.7307692307692311	-0.8495754519973345	2.757112050010571	90.40400364905712	0	0.93	0	-2.512875402964181	0.8085054856630669	0.7007590343636904	0.5992449892058841	0.01045879808772056	-2.13251034136962	0	0	-2.727029278647101	-0.635128668915471	-1.81994296109106	1.160809948250313	0.02025995558687295	-2.13251034135788	0	0	0	0	0	0	0	79.27845786263919	5.261786339342783e-39	0	0	0	0	0	89.20444703414886	0	1.177415776953884e-39	0	0
0.7500000000000003	-0.5569554919769121	3.503332750013477	90.3053745210034	0	0.93	0	-3.433451663883725	1.168231667312604	0.9040706762464918	0.4844459507816082	0.00845517688909346	-2.180794066516291	0	0	-3.291264366919593	0.4736519709591726	-6.509329470977203	2.334974453805698	0.04075299216886567	-2.180794066504751	0	0	0	0	0	0	0	78.41741443931522	0	4.506847320466346e-39	0	0	0	0	89.30556546213393	8.996681048689045e-40	2.129678651337781e-38	0	0
0.7692307692307696	-0.2998503124505081	3.864740719359105	90.13787163194618	0	0.93	0	-3.973602092284405	1.111375145051681	0.4045797495119308	0.5089901010780012	0.008883553123869861	-2.206218249145366	0	0	-4.437903017791839	0.8384207961208602	-5.411228471808617	1.560797776631744	0.02724106016003094	-2.206218249134245	0	0	0	0	0	0	0	77.0859619808471	0	0	0	0	0	0	89.24682736557547	0	0	0	0
0.7884615384615389	0.1919261595364729	3.856589484271137	90.14381167584349	0	0.93	0	-3.989841990067422	1.225342274231339	0.4774108453338254	0.5537259204084228	0.009664340464763043	-2.233094248615894	0	0	-3.929460213639484	1.432866801137281	-7.593956396012775	2.42478373337188	0.04232045979613962	-2.233094248604881	0	0	0	0	0	0	0	76.65252983847294	9.89335938056724e-40	6.101076480142206e-39	0	0	0	0	89.30239095252158	5.274130194505914e-39	0	0	0
0.8076923076923082	1.07544302564371	3.374735955558475	90.20239756802779	0	0.93	0	-3.751468232937147	1.801676843570452	-0.2133441869751796	0.5072819695265078	0.008853740604239102	-2.271021692325543	0	0	-3.798687168288958	-0.3867685141503397	-2.52572320805984	1.072391090189825	0.0187167553928639	-2.271021692314682	0	0	0	0	0	0	0	77.71484249267287	1.34512241712132e-40	9.023421830245289e-40	0	0	0	0	89.49968319383538	0	1.181732006477549e-38	0	0
0.8269230769230774	1.517717305042199	1.472553106609606	90.13457577230608	0	0.93	0	-2.034859909257795	1.93346900874872	0.6995844124562475	0.4703599295649449	0.008209329440356909	-2.288946327849907	0	0	-1.652093231558216	-1.659708595716343	0.03785967420695191	0.7811339855713975	0.01363335994744676	-2.288946327839111	0	0	0	0	0	0	0	78.58524284918067	0	0	0	0	0	0	89.69480645481845	0	1.085305721978183e-38	0	0
0.8461538461538467	1.301042828036986	2.960239146642349	90.42340658863993	0	0.93	0	-3.487684478248354	1.628634501928566	0.1215271920261775	0.5204577411166071	0.009083701199977064	-2.310058188646431	0	0	-2.810405225816741	-1.556881846801272	-1.138492893534841	0.9357635340888949	0.01633215468994941	-2.310058188635721	0	0	0	0	0	0	0	88.48409221588962	0	3.470479452676466e-39	0	0	0	0	89.27701578765154	1.028854828105102e-40	3.357295117566723e-40	0	0
0.865384615384616	1.060560196013822	2.801280061704708	90.96525243112234	0	0.93	0	-3.111518461093512	1.408220768929601	0.2691973426352407	0.5067761582972709	0.008844912532895356	-2.363165228742557	0	0	-1.879375682099864	-0.275626858176672	-6.61420721476741	2.67201412141952	0.04663544407855417	-2.363165228734368	0	0	0	0	0	0	0	89.93529806675166	0	2.175786657881174e-45	0	0	0	0	89.76827716093882	0	3.273480827623028e-45	0	0
0.8846153846153852	0.9367667497340528	2.842578309642688	92.60525413560113	0	0.93	0	-2.952786014509806	1.408842109939565	-1.847608448582502	0.4637684262695858	0.008094286005196835	-2.429755503669999	-1.119812143920662e-18	1.938295625104442e-15	-3.096644819086602	-0.5991835855519961	0.9925124124836284	0.7441635468296703	0.01298810406549676	-2.429755503662063	-7.2075944485949e-19	1.366435065492529e-15	-1.281865742405183e-25	-4.365225360800214e-23	-2.393528088910764e-26	-1.431911013838625e-20	2.352960554517492e-18	89.97590452987343	0	0	-1.798809956399918e-20	1.312908674004435e-22	-2.379044491794019e-16	-2.02716377039825e-14	89.90560574741878	1.426070118576744e-15	1.093177490182353e-14	6.743287929623045e-20	2.700483659272894e-21
0.9038461538461545	4.170838762764424	3.375381744741711	94.38052311685392	0	0.93	0	-3.345459778157385	4.89812676190754	-5.09594056441486	0.5952040805210933	0.01038827092639853	-2.460110860939874	0	0	-3.394537067321507	-3.477457352993933	-0.5353092554022473	1.304476277639988	0.02276740605897748	-2.460110860931827	0	0	0	0	0	0	0	89.98525621722499	7.237957155642948e-39	1.155801943531488e-39	0	0	0	0	89.94802150006029	1.07363648441461e-39	4.409301993029789e-39	0	0
0.9230769230769238	9.338613220552631	-0.9845753816141013	93.77649939065202	0	0.93	0	0.7316489152940922	9.24791972032512	-2.268429998259233	0.3357418640837629	0.005859800965044957	-2.521869992780009	3.553522634525882e-19	4.794981462389544e-22	1.137397669796905	-7.907692395185557	-3.842339816927809	1.72785264540303	0.03015671765157694	-2.521869992773691	3.35371617522615e-20	-2.035920193727294e-22	-5.27237727905082e-26	7.252107415287858e-23	-3.484252120867181e-26	2.060528940527912e-15	-2.589145471386387e-16	89.97998788912535	0	0	-4.057472594551241e-24	-5.130564647508071e-23	-1.084575166971652e-13	9.59842980943632e-14	89.90923993360379	0	7.715106684564504e-15	-7.638990115651127e-23	-4.598634547405062e-23
